<mxfile host="app.diagrams.net" modified="2024-05-23T09:13:22.728Z" agent="Mozilla/5.0 (Windows NT 10.0; Win64; x64) AppleWebKit/537.36 (KHTML, like Gecko) Chrome/124.0.0.0 Safari/537.36" etag="OMXaswwDVzTpTKsm67Jp" version="24.4.6" type="device">
  <diagram name="Page-1" id="0SBXd49LUMcfFHOJyT-W">
    <mxGraphModel dx="841" dy="614" grid="1" gridSize="10" guides="1" tooltips="1" connect="1" arrows="1" fold="1" page="1" pageScale="1" pageWidth="2336" pageHeight="1654" math="0" shadow="0">
      <root>
        <mxCell id="0" />
        <mxCell id="1" parent="0" />
        <mxCell id="LVzLQ8PIczJLZQD4RkMt-1" value="C39 Person Appellation in a Language type&lt;div&gt;(&quot;Prénom&quot;)&lt;/div&gt;" style="rounded=0;whiteSpace=wrap;html=1;fillColor=default;strokeColor=#000000;" parent="1" vertex="1">
          <mxGeometry x="740" y="385" width="150" height="70" as="geometry" />
        </mxCell>
        <mxCell id="LVzLQ8PIczJLZQD4RkMt-3" value="E62 String&lt;div&gt;(&lt;b&gt;prenom&lt;/b&gt;)&lt;/div&gt;" style="rounded=0;whiteSpace=wrap;html=1;strokeColor=#FF0000;" parent="1" vertex="1">
          <mxGeometry x="1108" y="190" width="120" height="60" as="geometry" />
        </mxCell>
        <mxCell id="LVzLQ8PIczJLZQD4RkMt-44" value="C38 Person Appellation in a Language" style="rounded=0;whiteSpace=wrap;html=1;strokeColor=#007FFF;" parent="1" vertex="1">
          <mxGeometry x="1108" y="390" width="120" height="60" as="geometry" />
        </mxCell>
        <mxCell id="LVzLQ8PIczJLZQD4RkMt-45" value="" style="endArrow=classic;html=1;rounded=0;entryX=0.5;entryY=1;entryDx=0;entryDy=0;" parent="1" edge="1">
          <mxGeometry width="50" height="50" relative="1" as="geometry">
            <mxPoint x="1168" y="390" as="sourcePoint" />
            <mxPoint x="1168" y="250" as="targetPoint" />
          </mxGeometry>
        </mxCell>
        <mxCell id="LVzLQ8PIczJLZQD4RkMt-5" value="sdh:P13 refers to name" style="rounded=0;whiteSpace=wrap;html=1;strokeColor=#FFFFFF;" parent="1" vertex="1">
          <mxGeometry x="1108" y="300" width="120" height="40" as="geometry" />
        </mxCell>
        <mxCell id="LVzLQ8PIczJLZQD4RkMt-46" value="E56 Language&lt;div&gt;(&quot;Français&quot;)&lt;/div&gt;" style="rounded=0;whiteSpace=wrap;html=1;" parent="1" vertex="1">
          <mxGeometry x="1460" y="390" width="120" height="60" as="geometry" />
        </mxCell>
        <mxCell id="LVzLQ8PIczJLZQD4RkMt-47" value="" style="endArrow=classic;html=1;rounded=0;entryX=0;entryY=0.5;entryDx=0;entryDy=0;exitX=1;exitY=0.5;exitDx=0;exitDy=0;" parent="1" source="LVzLQ8PIczJLZQD4RkMt-44" target="LVzLQ8PIczJLZQD4RkMt-46" edge="1">
          <mxGeometry width="50" height="50" relative="1" as="geometry">
            <mxPoint x="1178" y="400" as="sourcePoint" />
            <mxPoint x="1178" y="260" as="targetPoint" />
          </mxGeometry>
        </mxCell>
        <mxCell id="LVzLQ8PIczJLZQD4RkMt-49" value="" style="endArrow=classic;html=1;rounded=0;entryX=1;entryY=0.5;entryDx=0;entryDy=0;exitX=0;exitY=0.5;exitDx=0;exitDy=0;" parent="1" source="LVzLQ8PIczJLZQD4RkMt-44" target="LVzLQ8PIczJLZQD4RkMt-1" edge="1">
          <mxGeometry width="50" height="50" relative="1" as="geometry">
            <mxPoint x="1238" y="430" as="sourcePoint" />
            <mxPoint x="1390" y="430" as="targetPoint" />
          </mxGeometry>
        </mxCell>
        <mxCell id="LVzLQ8PIczJLZQD4RkMt-50" value="crm:P14 has appellation for language type" style="rounded=0;whiteSpace=wrap;html=1;strokeColor=#FFFFFF;" parent="1" vertex="1">
          <mxGeometry x="930" y="400" width="140" height="40" as="geometry" />
        </mxCell>
        <mxCell id="LVzLQ8PIczJLZQD4RkMt-51" value="crm:P12 used in language" style="rounded=0;whiteSpace=wrap;html=1;strokeColor=#FFFFFF;" parent="1" vertex="1">
          <mxGeometry x="1280" y="400" width="120" height="40" as="geometry" />
        </mxCell>
        <mxCell id="LVzLQ8PIczJLZQD4RkMt-54" value="E21 Person" style="rounded=0;whiteSpace=wrap;html=1;" parent="1" vertex="1">
          <mxGeometry x="1110" y="590" width="120" height="60" as="geometry" />
        </mxCell>
        <mxCell id="LVzLQ8PIczJLZQD4RkMt-55" value="" style="endArrow=classic;html=1;rounded=0;entryX=0.5;entryY=0;entryDx=0;entryDy=0;exitX=0.5;exitY=1;exitDx=0;exitDy=0;" parent="1" source="LVzLQ8PIczJLZQD4RkMt-44" target="LVzLQ8PIczJLZQD4RkMt-54" edge="1">
          <mxGeometry width="50" height="50" relative="1" as="geometry">
            <mxPoint x="1170" y="460" as="sourcePoint" />
            <mxPoint x="530" y="629" as="targetPoint" />
          </mxGeometry>
        </mxCell>
        <mxCell id="LVzLQ8PIczJLZQD4RkMt-16" value="sdh:P11 is appellation for language of" style="rounded=0;whiteSpace=wrap;html=1;strokeColor=#FFFFFF;" parent="1" vertex="1">
          <mxGeometry x="1110" y="500" width="120" height="40" as="geometry" />
        </mxCell>
      </root>
    </mxGraphModel>
  </diagram>
</mxfile>
